<?xml version="1.0" encoding="UTF-8" standalone="no"?>
<!-- Created with Inkscape (http://www.inkscape.org/) -->

<svg
   width="338.66666mm"
   height="169.33333mm"
   viewBox="0 0 338.66666 169.33333"
   version="1.1"
   id="svg1"
   xml:space="preserve"
   inkscape:version="1.3 (1:1.3+202307231459+0e150ed6c4)"
   sodipodi:docname="github-social-preview.svg"
   xmlns:inkscape="http://www.inkscape.org/namespaces/inkscape"
   xmlns:sodipodi="http://sodipodi.sourceforge.net/DTD/sodipodi-0.dtd"
   xmlns:xlink="http://www.w3.org/1999/xlink"
   xmlns="http://www.w3.org/2000/svg"
   xmlns:svg="http://www.w3.org/2000/svg"><sodipodi:namedview
     id="namedview1"
     pagecolor="#505050"
     bordercolor="#eeeeee"
     borderopacity="1"
     inkscape:showpageshadow="0"
     inkscape:pageopacity="0"
     inkscape:pagecheckerboard="0"
     inkscape:deskcolor="#505050"
     inkscape:document-units="mm"
     inkscape:zoom="0.49827319"
     inkscape:cx="1013.5002"
     inkscape:cy="591.04123"
     inkscape:window-width="1920"
     inkscape:window-height="1029"
     inkscape:window-x="0"
     inkscape:window-y="25"
     inkscape:window-maximized="1"
     inkscape:current-layer="layer1" /><defs
     id="defs1" /><g
     inkscape:label="Layer 1"
     inkscape:groupmode="layer"
     id="layer1"
     transform="translate(64.200584,-63.833336)"><g
       id="g1"
       transform="translate(-3.4432284,10.318492)"><path
         id="path3"
         style="color:#000000;fill:#fbfd31;fill-opacity:1;stroke-width:4.86975;-inkscape-stroke:none"
         d="M 67.052103,94.503649 49.821534,111.73171 c 4.39e-4,4.3e-4 -4.38e-4,0.002 0,0.002 6.737159,6.73545 10.881404,16.0619 10.881404,26.44104 0,10.37977 -4.143471,19.71314 -10.881404,26.45107 l 17.230569,17.23054 c 11.211466,-11.21148 18.171741,-26.67601 18.171741,-43.68161 0,-17.00497 -6.96103,-32.46258 -18.171741,-43.671581 z" /><path
         id="circle2"
         style="color:#000000;fill:#cfea29;fill-opacity:1;stroke-width:4.86975;-inkscape-stroke:none"
         d="m 23.370463,76.334416 c -34.011221,0 -61.840792,27.829554 -61.840792,61.840814 0,34.01121 27.829571,61.85337 61.840792,61.85337 17.005611,0 32.470175,-6.96028 43.68164,-18.17176 L 49.821534,164.6263 c -6.737932,6.73793 -16.071261,10.88136 -26.451071,10.88136 -20.7596182,0 -37.319886,-16.57283 -37.319886,-37.33243 0,-20.75965 16.5602678,-37.31992 37.319886,-37.31992 10.37981,0 19.713139,4.1408 26.451071,10.8764 L 67.052103,94.503649 c -4.33e-4,-4.38e-4 4.29e-4,-0.0021 0,-0.0025 C 55.840638,83.292023 40.376074,76.334416 23.370463,76.334416 Z" /><g
         id="g5"
         transform="matrix(-4.8697502,0,0,4.8697502,85.221341,76.334416)"><g
           id="g4"
           transform="matrix(0.61399115,0,0,0.60641773,26.466594,3.6376656)"
           style="fill:#fa9801;fill-opacity:1"><path
             id="path4"
             style="color:#000000;fill:#fa9801;fill-opacity:1;-inkscape-stroke:none"
             d="m -35.12045,14.832756 c 0,3.817358 1.70724,7.255496 4.395862,9.588554 2.230441,1.93547 5.13628,-5.621967 8.303104,-5.621967 v -5.035351 c -4.262974,0 -7.663614,5.331738 -7.663614,1.068764 0,-0.892492 0.149081,-1.747308 0.423936,-2.541097 0.381565,-1.101972 1.005523,-2.086334 1.809519,-2.8906127 l -1.765635,-1.765893 -1.772133,-1.7723927 c 0.30146,0.3081282 -1.173762,1.020447 -2.530187,3.8105365 -0.760076,1.5634329 -1.200852,3.2986369 -1.200852,5.1594589 z"
             sodipodi:nodetypes="ssccsscccss" /><use
             x="0"
             y="0"
             xlink:href="#path4"
             id="use4"
             transform="matrix(-1,0,0,1,-44.842968,0)"
             style="fill:#fa9801;fill-opacity:1" /></g></g></g><text
       xml:space="preserve"
       style="font-style:normal;font-variant:normal;font-weight:normal;font-stretch:normal;font-size:36.6051px;font-family:Ubuntu;-inkscape-font-specification:Ubuntu;fill:#000000;fill-opacity:1;stroke-width:6.86345"
       x="100.8708"
       y="115.42734"
       id="text1"><tspan
         sodipodi:role="line"
         style="font-size:36.6051px;fill:#000000;fill-opacity:1;stroke-width:6.86345"
         x="100.8708"
         y="115.42734"
         id="tspan2">Open</tspan><tspan
         sodipodi:role="line"
         style="font-size:36.6051px;fill:#000000;fill-opacity:1;stroke-width:6.86345"
         x="100.8708"
         y="161.18372"
         id="tspan3">Web</tspan><tspan
         sodipodi:role="line"
         style="font-size:36.6051px;fill:#000000;fill-opacity:1;stroke-width:6.86345"
         x="100.8708"
         y="206.94008"
         id="tspan4">Calendar</tspan></text></g></svg>
