<?xml version="1.0" encoding="UTF-8" standalone="no"?>
<!-- Created with Inkscape (http://www.inkscape.org/) -->

<svg
   width="96"
   height="96"
   viewBox="0 0 25.399999 25.4"
   version="1.1"
   id="svg1"
   xml:space="preserve"
   inkscape:version="1.3.2 (1:1.3.2+202311252150+091e20ef0f)"
   sodipodi:docname="group.svg"
   xmlns:inkscape="http://www.inkscape.org/namespaces/inkscape"
   xmlns:sodipodi="http://sodipodi.sourceforge.net/DTD/sodipodi-0.dtd"
   xmlns="http://www.w3.org/2000/svg"
   xmlns:svg="http://www.w3.org/2000/svg"><sodipodi:namedview
     id="namedview1"
     pagecolor="#505050"
     bordercolor="#eeeeee"
     borderopacity="1"
     inkscape:showpageshadow="0"
     inkscape:pageopacity="0"
     inkscape:pagecheckerboard="0"
     inkscape:deskcolor="#505050"
     inkscape:document-units="px"
     inkscape:zoom="4.7572176"
     inkscape:cx="47.611865"
     inkscape:cy="69.473383"
     inkscape:window-width="1920"
     inkscape:window-height="1149"
     inkscape:window-x="0"
     inkscape:window-y="25"
     inkscape:window-maximized="1"
     inkscape:current-layer="layer1" /><defs
     id="defs1" /><g
     inkscape:label="Ebene 1"
     inkscape:groupmode="layer"
     id="layer1"><g
       id="g8"
       transform="translate(-0.76199784,-0.13300851)"><g
         id="g2"
         transform="matrix(0.78903989,0,0,0.79052459,1.0252765,4.5119686)"
         style="stroke-width:1.26617"><path
           style="fill:none;fill-opacity:1;stroke:#000000;stroke-width:1.26633;stroke-linecap:round;stroke-linejoin:bevel;stroke-dasharray:none;stroke-opacity:1"
           d="M 4.8601499,21.538787 C 6.2257379,16.689806 6.8004663,15.458385 9.3600408,14.731359 10.302815,14.463572 11.760658,12.471796 10.253841,11.350825 8.0493126,9.7108027 8.9619852,3.7887096 12.7,3.8618564"
           id="path1"
           sodipodi:nodetypes="cssc" /><path
           style="fill:none;fill-opacity:1;stroke:#000000;stroke-width:1.26633;stroke-linecap:round;stroke-linejoin:bevel;stroke-dasharray:none;stroke-opacity:1"
           d="m 20.471397,21.539459 c -1.365588,-4.848981 -1.940316,-6.080402 -4.499891,-6.807428 -0.942774,-0.267787 -2.400617,-2.259563 -0.8938,-3.380534 2.204529,-1.6400226 1.291856,-7.5621157 -2.446159,-7.4889689"
           id="path2"
           sodipodi:nodetypes="cssc" /></g><g
         id="g4"
         transform="matrix(0.78903989,0,0,0.79052459,3.441191,2.7933442)"
         style="stroke-width:1.26617"><path
           style="fill:none;fill-opacity:1;stroke:#000000;stroke-width:1.26633;stroke-linecap:round;stroke-linejoin:bevel;stroke-dasharray:none;stroke-opacity:1"
           d="M 9.5697062,6.0365584 C 10.137762,4.7840464 11.187637,3.8322619 12.7,3.8618564"
           id="path3"
           sodipodi:nodetypes="cc" /><path
           style="fill:none;fill-opacity:1;stroke:#000000;stroke-width:1.26633;stroke-linecap:round;stroke-linejoin:bevel;stroke-dasharray:none;stroke-opacity:1"
           d="m 20.471397,21.539459 c -1.365588,-4.848981 -1.940316,-6.080402 -4.499891,-6.807428 -0.942774,-0.267787 -2.400617,-2.259563 -0.8938,-3.380534 2.204529,-1.6400226 1.291856,-7.5621157 -2.446159,-7.4889689"
           id="path4"
           sodipodi:nodetypes="cssc" /></g><g
         id="g7"
         transform="matrix(0.78903989,0,0,0.79052459,5.9111177,1.0741888)"
         style="stroke-width:1.26617"><path
           style="fill:none;fill-opacity:1;stroke:#000000;stroke-width:1.26633;stroke-linecap:round;stroke-linejoin:bevel;stroke-dasharray:none;stroke-opacity:1"
           d="M 9.5697062,6.0365584 C 10.137762,4.7840464 11.187637,3.8322619 12.7,3.8618564"
           id="path6"
           sodipodi:nodetypes="cc" /><path
           style="fill:none;fill-opacity:1;stroke:#000000;stroke-width:1.26633;stroke-linecap:round;stroke-linejoin:bevel;stroke-dasharray:none;stroke-opacity:1"
           d="m 20.471397,21.539459 c -1.365588,-4.848981 -1.940316,-6.080402 -4.499891,-6.807428 -0.942774,-0.267787 -2.400617,-2.259563 -0.8938,-3.380534 2.204529,-1.6400226 1.291856,-7.5621157 -2.446159,-7.4889689"
           id="path7"
           sodipodi:nodetypes="cssc" /></g></g></g></svg>
