<?xml version="1.0" encoding="UTF-8" standalone="no"?>
<!-- Created with Inkscape (http://www.inkscape.org/) -->

<svg
   width="96"
   height="96"
   viewBox="0 0 25.399999 25.4"
   version="1.1"
   id="svg1"
   xml:space="preserve"
   inkscape:version="1.3.2 (1:1.3.2+202311252150+091e20ef0f)"
   sodipodi:docname="resource.svg"
   xmlns:inkscape="http://www.inkscape.org/namespaces/inkscape"
   xmlns:sodipodi="http://sodipodi.sourceforge.net/DTD/sodipodi-0.dtd"
   xmlns="http://www.w3.org/2000/svg"
   xmlns:svg="http://www.w3.org/2000/svg"><sodipodi:namedview
     id="namedview1"
     pagecolor="#505050"
     bordercolor="#eeeeee"
     borderopacity="1"
     inkscape:showpageshadow="0"
     inkscape:pageopacity="0"
     inkscape:pagecheckerboard="0"
     inkscape:deskcolor="#505050"
     inkscape:document-units="px"
     inkscape:zoom="4.7572176"
     inkscape:cx="58.542624"
     inkscape:cy="59.383452"
     inkscape:window-width="1920"
     inkscape:window-height="1149"
     inkscape:window-x="0"
     inkscape:window-y="25"
     inkscape:window-maximized="1"
     inkscape:current-layer="layer1" /><defs
     id="defs1" /><g
     inkscape:label="Ebene 1"
     inkscape:groupmode="layer"
     id="layer1"><path
       style="fill:none;stroke:#000000;stroke-width:0.999999;stroke-linejoin:round;stroke-dasharray:none"
       d="M 14.178511,7.9405902 14.492604,6.8402681 14.377481,5.7679856 12.82217,3.4250588 H 12.577831 L 11.02252,5.7679856 10.907396,6.8402681 11.221489,7.9405902 9.5737389,8.7343832 8.9096084,7.8026822 7.9997967,7.2241746 5.1989449,6.9798007 5.0465978,7.1708969 l 0.861412,2.6772269 0.7662622,0.7585772 1.0557908,0.440395 -0.4069538,1.783632 -1.1422452,-0.06148 -1.0193983,0.350878 -1.9373043,2.038202 0.054371,0.23831 2.6294773,0.995494 1.0706367,-0.126332 1.0024552,-0.551158 1.1402761,1.430362 -0.7602267,0.855027 -0.3613544,1.01605 0.3850875,2.785983 0.2201451,0.106043 2.417491,-1.435837 0.568789,-0.916121 0.194263,-1.127683 h 1.828856 l 0.194264,1.127683 0.568789,0.916121 2.41749,1.435837 0.220145,-0.106043 0.385088,-2.785983 -0.361355,-1.01605 -0.760226,-0.855027 1.140276,-1.430362 1.002455,0.551158 1.070637,0.126332 2.629477,-0.995494 0.05437,-0.23831 -1.937304,-2.038202 -1.019398,-0.350878 -1.142245,0.06148 -0.406954,-1.783632 1.055791,-0.440395 0.766262,-0.7585772 0.861412,-2.6772269 -0.152347,-0.1910962 -2.800852,0.2443739 -0.909812,0.5785076 -0.66413,0.931701 z"
       id="path4" /></g></svg>
