<?xml version="1.0" encoding="UTF-8" standalone="no"?>
<!-- Created with Inkscape (http://www.inkscape.org/) -->

<svg
   width="96"
   height="96"
   viewBox="0 0 25.399999 25.4"
   version="1.1"
   id="svg1"
   xml:space="preserve"
   inkscape:version="1.3.2 (1:1.3.2+202311252150+091e20ef0f)"
   sodipodi:docname="add-participant.svg"
   xmlns:inkscape="http://www.inkscape.org/namespaces/inkscape"
   xmlns:sodipodi="http://sodipodi.sourceforge.net/DTD/sodipodi-0.dtd"
   xmlns="http://www.w3.org/2000/svg"
   xmlns:svg="http://www.w3.org/2000/svg"><sodipodi:namedview
     id="namedview1"
     pagecolor="#505050"
     bordercolor="#eeeeee"
     borderopacity="1"
     inkscape:showpageshadow="0"
     inkscape:pageopacity="0"
     inkscape:pagecheckerboard="0"
     inkscape:deskcolor="#505050"
     inkscape:document-units="px"
     inkscape:zoom="3.3638608"
     inkscape:cx="63.617377"
     inkscape:cy="42.659316"
     inkscape:window-width="1920"
     inkscape:window-height="1149"
     inkscape:window-x="0"
     inkscape:window-y="25"
     inkscape:window-maximized="1"
     inkscape:current-layer="layer1" /><defs
     id="defs1" /><g
     inkscape:label="Ebene 1"
     inkscape:groupmode="layer"
     id="layer1"><path
       id="path8"
       style="fill:#000000;fill-opacity:1;stroke:none;stroke-width:4.99999;stroke-linecap:round;stroke-linejoin:bevel;stroke-dasharray:4.99999, 15"
       d="M 12.7 3.8617797 C 11.482063 3.8379466 10.566032 4.4523246 9.9580483 5.3459268 L 12.140861 5.3459268 A 1.0002249 1.0002249 0 0 1 13.1408 6.3458658 L 13.1408 7.3458047 A 1.0002249 1.0002249 0 0 1 12.140861 8.3457437 L 9.6738279 8.3457437 L 9.6738279 10.717692 C 9.8349582 10.965876 10.026832 11.182 10.253637 11.350728 C 11.760452 12.471697 10.302926 14.463614 9.360152 14.7314 C 6.8005827 15.458425 6.2257536 16.689765 4.8601684 21.538737 L 11.902632 21.538737 L 13.497367 21.538737 L 20.539831 21.538737 C 19.174247 16.689765 18.599416 15.458425 16.039848 14.7314 C 15.097074 14.463614 13.63955 12.471697 15.146362 11.350728 C 17.350887 9.7107093 16.438007 3.788633 12.7 3.8617797 z " /><g
       id="path2"><path
         style="color:#000000;fill:#000000;stroke-linejoin:round;-inkscape-stroke:none"
         d="M 7.67395,2.878894 V 6.3458658 H 4.2069783 V 7.3458047 H 7.67395 V 10.81226 H 8.673889 V 7.3458047 h 3.466972 V 6.3458658 H 8.673889 V 2.878894 Z"
         id="path3" /></g><path
       id="path5"
       style="color:#000000;fill:#000000;-inkscape-stroke:none"
       d="M 7.67395 2.878894 L 7.67395 6.3458658 L 4.2069783 6.3458658 L 4.2069783 7.3458047 L 7.67395 7.3458047 L 7.67395 10.81226 L 8.673889 10.81226 L 8.673889 7.3458047 L 12.140861 7.3458047 L 12.140861 6.3458658 L 8.673889 6.3458658 L 8.673889 2.878894 L 7.67395 2.878894 z " /></g></svg>
