<?xml version="1.0" encoding="UTF-8" standalone="no"?>
<!-- Created with Inkscape (http://www.inkscape.org/) -->

<svg
   width="96"
   height="96"
   viewBox="0 0 25.399999 25.4"
   version="1.1"
   id="svg1"
   xml:space="preserve"
   inkscape:version="1.3.2 (1:1.3.2+202311252150+091e20ef0f)"
   sodipodi:docname="participant-chair.svg"
   xmlns:inkscape="http://www.inkscape.org/namespaces/inkscape"
   xmlns:sodipodi="http://sodipodi.sourceforge.net/DTD/sodipodi-0.dtd"
   xmlns="http://www.w3.org/2000/svg"
   xmlns:svg="http://www.w3.org/2000/svg"><sodipodi:namedview
     id="namedview1"
     pagecolor="#505050"
     bordercolor="#eeeeee"
     borderopacity="1"
     inkscape:showpageshadow="0"
     inkscape:pageopacity="0"
     inkscape:pagecheckerboard="0"
     inkscape:deskcolor="#505050"
     inkscape:document-units="px"
     inkscape:zoom="9.5144351"
     inkscape:cx="47.611865"
     inkscape:cy="44.196003"
     inkscape:window-width="1920"
     inkscape:window-height="1149"
     inkscape:window-x="0"
     inkscape:window-y="25"
     inkscape:window-maximized="1"
     inkscape:current-layer="layer1" /><defs
     id="defs1" /><g
     inkscape:label="Ebene 1"
     inkscape:groupmode="layer"
     id="layer1"><path
       id="path8"
       style="fill:#000000;fill-opacity:1;stroke:none;stroke-width:4.99999;stroke-linecap:round;stroke-linejoin:bevel;stroke-dasharray:4.99999, 15"
       d="M 12.500529 2.1905639 L 9.6836465 3.8168212 L 7.2217813 2.3719482 L 7.2217813 6.1345092 L 9.5286172 6.1345092 C 8.7429661 7.9672683 8.9639426 10.391281 10.253637 11.350728 C 11.760452 12.471697 10.302926 14.463614 9.360152 14.7314 C 6.8005827 15.458425 6.2257536 16.689765 4.8601684 21.538737 L 11.902632 21.538737 L 13.497367 21.538737 L 20.539831 21.538737 C 19.174247 16.689765 18.599416 15.458425 16.039848 14.7314 C 15.097074 14.463614 13.63955 12.471697 15.146362 11.350728 C 16.436058 10.391281 16.657033 7.9672683 15.871382 6.1345092 L 17.779276 6.1345092 L 17.779276 2.3719482 L 15.316894 3.8168212 L 12.500529 2.1905639 z " /></g></svg>
